<svg version="1.1" xmlns="http://www.w3.org/2000/svg" xmlns:xlink="http://www.w3.org/1999/xlink" width="24" height="24" viewBox="0,0,256,256"><g fill="none" fill-rule="nonzero" stroke="none" stroke-width="1" stroke-linecap="butt" stroke-linejoin="miter" stroke-miterlimit="10" stroke-dasharray="" stroke-dashoffset="0" font-family="none" font-weight="none" font-size="none" text-anchor="none" style="mix-blend-mode: normal"><g transform="scale(10.66667,10.66667)"><path d="M0,0h24v24h-24z" fill="none"></path><path d="M14.52,2c1.029,0 2.015,0.409 2.742,1.136l3.602,3.602c0.72711,0.72708 1.13559,1.71323 1.13559,2.7415c0,1.02827 -0.40849,2.01442 -1.13559,2.7415l-2.643,2.643c-1.32289,1.32164 -3.40027,1.51168 -4.941,0.452l-0.105,-0.078l-5.882,5.883c-0.45524,0.45371 -1.04416,0.74922 -1.68,0.843l-0.22,0.027l-0.221,0.009h-1.172c-1.014,0 -1.867,-0.759 -1.991,-1.823l-0.009,-0.177v-1.172c0,-0.704 0.248,-1.386 0.73,-1.96l0.149,-0.161l0.414,-0.414c0.18749,-0.18755 0.44181,-0.29294 0.707,-0.293h1v-1c0.00007,-0.50697 0.37951,-0.93368 0.883,-0.993l0.117,-0.007h1v-1c-0.00002,-0.2198 0.07238,-0.43348 0.206,-0.608l0.087,-0.1l1.468,-1.469l-0.076,-0.103c-0.39927,-0.58103 -0.63358,-1.25941 -0.678,-1.963l-0.007,-0.236c0,-1.029 0.409,-2.015 1.136,-2.742l2.643,-2.643c0.72708,-0.72685 1.71291,-1.13543 2.741,-1.136M15.015,7h-0.02c-1.10457,0 -2,0.89543 -2,2c0,1.10457 0.89543,2 2,2h0.02c1.10457,0 2,-0.89543 2,-2c0,-1.10457 -0.89543,-2 -2,-2" fill="#81b680"></path></g></g></svg>